<svg width="94" height="93" viewBox="0 0 94 93" fill="none" xmlns="http://www.w3.org/2000/svg">
<circle cx="47" cy="46.5" r="46.5" fill="#F4F0EC"/>
<path d="M61.5012 55.0749C60.2796 53.8442 57.3211 52.0482 55.8857 51.3243C54.0164 50.3828 53.8625 50.3059 52.3933 51.3974C51.4133 52.1258 50.7617 52.7766 49.6148 52.532C48.4678 52.2874 45.9754 50.9082 43.7931 48.7329C41.6107 46.5576 40.1514 43.9931 39.9061 42.8501C39.6607 41.7071 40.3222 41.0632 41.0438 40.081C42.0607 38.6964 41.9838 38.4657 41.1145 36.5965C40.4368 35.1427 38.5883 32.2121 37.3529 30.9967C36.0313 29.6914 36.0313 29.9222 35.1798 30.276C34.4865 30.5677 33.8214 30.9222 33.1928 31.3352C31.962 32.1529 31.2789 32.8321 30.8012 33.8528C30.3235 34.8735 30.1089 37.2665 32.5759 41.7478C35.0429 46.2292 36.7737 48.5206 40.3561 52.0928C43.9385 55.6649 46.6931 57.5856 50.7202 59.844C55.7018 62.6339 57.6126 62.09 58.6365 61.6131C59.6604 61.1362 60.3427 60.4593 61.162 59.2286C61.576 58.6011 61.9314 57.9368 62.2235 57.2441C62.5781 56.3957 62.8089 56.3957 61.5012 55.0749Z" stroke="#CDA274" stroke-width="2" stroke-miterlimit="10"/>
</svg>
